<svg width="17" height="16" viewBox="0 0 17 16" fill="none" xmlns="http://www.w3.org/2000/svg">
<path d="M12.6046 11.2547L11.8133 12.0374C11.23 12.6094 10.4733 13.3454 9.54265 14.2454C9.26293 14.5159 8.88907 14.6671 8.49998 14.6671C8.11089 14.6671 7.73703 14.5159 7.45731 14.2454L5.12998 11.9814C4.83732 11.6941 4.59265 11.4521 4.39531 11.2547C3.58356 10.4429 3.03076 9.40863 2.80682 8.28265C2.58288 7.15667 2.69786 5.98956 3.13721 4.92892C3.57656 3.86828 4.32056 2.96174 5.27512 2.32394C6.22969 1.68613 7.35194 1.3457 8.49998 1.3457C9.64802 1.3457 10.7703 1.68613 11.7248 2.32394C12.6794 2.96174 13.4234 3.86828 13.8628 4.92892C14.3021 5.98956 14.4171 7.15667 14.1931 8.28265C13.9692 9.40863 13.4164 10.4429 12.6046 11.2547ZM10.1666 7.33341C10.1666 6.89138 9.99105 6.46746 9.67849 6.1549C9.36593 5.84234 8.94201 5.66674 8.49998 5.66674C8.05795 5.66674 7.63403 5.84234 7.32147 6.1549C7.00891 6.46746 6.83331 6.89138 6.83331 7.33341C6.83331 7.77544 7.00891 8.19936 7.32147 8.51192C7.63403 8.82448 8.05795 9.00007 8.49998 9.00007C8.94201 9.00007 9.36593 8.82448 9.67849 8.51192C9.99105 8.19936 10.1666 7.77544 10.1666 7.33341Z" fill="white" style="fill:white;fill-opacity:1;"/>
</svg>
