<svg width="160" height="24" viewBox="0 0 160 24" fill="none" xmlns="http://www.w3.org/2000/svg">
<path fill-rule="evenodd" clip-rule="evenodd" d="M0.118798 12.2868C-0.039599 12.1284 -0.0395993 11.8716 0.118797 11.7132L3.03956 8.79244C3.26775 8.56425 3.39595 8.25475 3.39595 7.93203V3.80136C3.39595 3.57736 3.57754 3.39576 3.80155 3.39576H7.89022C8.23982 3.39576 8.57511 3.25688 8.82232 3.00967L11.7132 0.118797C11.8716 -0.0395993 12.1284 -0.0395991 12.2868 0.118798L15.2074 3.03937C15.4356 3.26756 15.7451 3.39576 16.0678 3.39576H20.1985C20.4225 3.39576 20.6041 3.57736 20.6041 3.80136V7.93209C20.6041 8.2548 20.7323 8.5643 20.9605 8.79249L23.8812 11.7132C24.0396 11.8716 24.0396 12.1284 23.8812 12.2868L20.9605 15.2075C20.7323 15.4357 20.6041 15.7452 20.6041 16.0679V20.1983C20.6041 20.4223 20.4225 20.6039 20.1985 20.6039H16.0681C15.7454 20.6039 15.4359 20.7321 15.2077 20.9603L12.2868 23.8812C12.1284 24.0396 11.8716 24.0396 11.7132 23.8812L8.79231 20.9603C8.56411 20.7321 8.25462 20.6039 7.9319 20.6039H3.80155C3.57754 20.6039 3.39595 20.4223 3.39595 20.1983V16.068C3.39595 15.7453 3.26775 15.4358 3.03956 15.2076L0.118798 12.2868ZM21.1974 12.2828C21.5023 12.2174 21.5023 11.7823 21.1974 11.7168L14.0419 10.1802C13.9305 10.1563 13.8435 10.0693 13.8196 9.95796L12.283 2.80244C12.2176 2.4975 11.7825 2.4975 11.717 2.80244L10.1804 9.95796C10.1565 10.0693 10.0695 10.1563 9.95816 10.1802L2.80264 11.7168C2.4977 11.7823 2.4977 12.2174 2.80264 12.2828L9.95816 13.8194C10.0695 13.8433 10.1565 13.9303 10.1804 14.0416L11.717 21.1972C11.7825 21.5021 12.2176 21.5021 12.283 21.1972L13.8196 14.0416C13.8435 13.9303 13.9305 13.8433 14.0419 13.8194L21.1974 12.2828Z" fill="white" style="fill:white;fill-opacity:1;"/>
<g clip-path="url(#clip0_6458_215)">
<path fill-rule="evenodd" clip-rule="evenodd" d="M61.3832 8.15902C61.3832 6.2027 59.7973 4.61679 57.8409 4.61679L45.3084 4.61679L45.3084 2L57.8409 2C61.2425 2 64 4.75749 64 8.15902V21.9588H49.2655C46.3574 21.9588 44 19.6014 44 16.6933L44 14.7553C44 11.8473 46.3574 9.48983 49.2655 9.48983H61.3832V8.15902ZM61.3832 12.1066L49.2655 12.1066C47.8026 12.1066 46.6168 13.2925 46.6168 14.7553V16.6933C46.6168 18.1562 47.8026 19.342 49.2655 19.342L61.3832 19.342L61.3832 12.1066Z" fill="white" style="fill:white;fill-opacity:1;"/>
<path fill-rule="evenodd" clip-rule="evenodd" d="M89.8049 4.61679L108.861 4.61679V2L89.8049 2V4.61679Z" fill="white" style="fill:white;fill-opacity:1;"/>
<path fill-rule="evenodd" clip-rule="evenodd" d="M98.0246 8.82408V22H100.641V8.82408H98.0246Z" fill="white" style="fill:white;fill-opacity:1;"/>
<path fill-rule="evenodd" clip-rule="evenodd" d="M114.589 8.15902C114.589 6.2027 116.175 4.61679 118.131 4.61679L128.798 4.61679V2L118.131 2C114.73 2 111.972 4.75749 111.972 8.15902V22H114.589V8.15902Z" fill="white" style="fill:white;fill-opacity:1;"/>
<path fill-rule="evenodd" clip-rule="evenodd" d="M146.969 21.9588C149.384 21.9588 151.341 20.0014 151.341 17.5869V6.37197C151.341 3.95741 149.384 2.00002 146.969 2.00002L136.281 2.00002C133.866 2.00002 131.909 3.95741 131.909 6.37197V17.5869C131.909 20.0014 133.866 21.9588 136.281 21.9588H146.969ZM148.725 17.5869C148.725 18.5562 147.939 19.342 146.969 19.342H136.281C135.311 19.342 134.526 18.5562 134.526 17.5869V6.37197C134.526 5.40262 135.311 4.61681 136.281 4.61681L146.969 4.61681C147.939 4.61681 148.725 5.40262 148.725 6.37197V17.5869Z" fill="white" style="fill:white;fill-opacity:1;"/>
<path fill-rule="evenodd" clip-rule="evenodd" d="M67.7022 4.61679H86.5673V2L67.7022 2L67.7022 4.61679Z" fill="white" style="fill:white;fill-opacity:1;"/>
<path fill-rule="evenodd" clip-rule="evenodd" d="M85.2589 15.732C85.2589 13.7155 83.6242 12.0808 81.6077 12.0808L67.711 12.0808V9.464L81.6077 9.464C85.0694 9.464 87.8757 12.2703 87.8757 15.732C87.8757 19.1937 85.0694 22 81.6077 22L67.711 22V19.3832H81.6077C83.6242 19.3832 85.2589 17.7485 85.2589 15.732Z" fill="white" style="fill:white;fill-opacity:1;"/>
</g>
<defs>
<clipPath id="clip0_6458_215">
<rect width="107.5" height="20" fill="white" style="fill:white;fill-opacity:1;" transform="translate(44 2)"/>
</clipPath>
</defs>
</svg>
