<svg width="24" height="24" viewBox="0 0 24 24" fill="none" xmlns="http://www.w3.org/2000/svg">
<path d="M12 1.99902C17.524 1.99902 22.002 6.47702 22.002 12.001C22.002 17.524 17.524 22.002 12 22.002C6.47605 22.002 1.99805 17.524 1.99805 12.001C1.99805 6.47702 6.47605 1.99902 12 1.99902ZM14.939 16.5H9.06005C9.71205 18.914 10.846 20.502 11.999 20.502C13.152 20.502 14.286 18.914 14.938 16.5H14.939ZM7.50905 16.5H4.78505C5.75054 18.045 7.18521 19.2403 8.87905 19.911C8.35705 19.091 7.92605 18.065 7.60905 16.896L7.50705 16.501L7.50905 16.5ZM19.214 16.5H16.492C16.168 17.835 15.7 19 15.119 19.911C16.7059 19.2834 18.0679 18.1941 19.029 16.784L19.214 16.5ZM7.09405 10H3.73505L3.73005 10.017C3.5749 10.6669 3.49669 11.3328 3.49705 12.001C3.49705 13.057 3.69005 14.068 4.04205 15.001H7.21505C6.97354 13.3453 6.93224 11.6666 7.09205 10.001L7.09405 10ZM15.397 10H8.60305C8.42711 11.6653 8.47251 13.3466 8.73805 15H15.262C15.5275 13.3466 15.5729 11.6653 15.397 10ZM20.265 10H16.907C16.969 10.647 17.002 11.317 17.002 12C17.0037 13.004 16.9308 14.0068 16.784 15H19.957C20.3181 14.0411 20.5024 13.0247 20.501 12C20.501 11.311 20.419 10.64 20.265 10ZM8.88005 4.09002L8.85705 4.09802C6.81046 4.91524 5.15951 6.49273 4.25005 8.50002H7.29805C7.61205 6.74802 8.15705 5.22202 8.88005 4.09002ZM12 3.49902L11.884 3.50402C10.62 3.62002 9.39605 5.62202 8.83005 8.50002H15.172C14.606 5.63002 13.389 3.63102 12.127 3.50502L12 3.49902ZM15.12 4.08902L15.227 4.26402C15.896 5.37602 16.404 6.83602 16.702 8.50102H19.75C18.8819 6.58511 17.3367 5.05735 15.411 4.21102L15.12 4.08902Z" fill="white" style="fill:white;fill-opacity:1;"/>
</svg>
