<svg width="24" height="24" viewBox="0 0 24 24" fill="none" xmlns="http://www.w3.org/2000/svg">
<path d="M17.7539 14C18.0493 13.9999 18.3419 14.058 18.6149 14.1709C18.8878 14.2839 19.1359 14.4495 19.3448 14.6584C19.5538 14.8672 19.7195 15.1152 19.8326 15.3881C19.9457 15.6611 20.0039 15.9536 20.0039 16.249V16.824C20.0039 17.718 19.6839 18.584 19.1019 19.262C17.5319 21.096 15.1449 22.001 11.9999 22.001C8.85391 22.001 6.46791 21.096 4.90191 19.261C4.32229 18.5821 4.00388 17.7187 4.00391 16.826V16.249C4.00378 15.9536 4.06185 15.661 4.17481 15.3881C4.28778 15.1151 4.45342 14.867 4.66227 14.6581C4.87112 14.4492 5.11909 14.2834 5.39202 14.1703C5.66495 14.0572 5.95748 13.999 6.25291 13.999H17.7539V14ZM17.7539 15.5H6.25291C6.15446 15.4999 6.05696 15.5192 5.96597 15.5568C5.87498 15.5943 5.79229 15.6495 5.72264 15.7191C5.65298 15.7886 5.59772 15.8712 5.56002 15.9622C5.52231 16.0531 5.50291 16.1506 5.50291 16.249V16.826C5.50291 17.362 5.69491 17.88 6.04291 18.287C7.29591 19.755 9.26191 20.501 11.9999 20.501C14.7379 20.501 16.7059 19.755 17.9619 18.287C18.3109 17.8795 18.5028 17.3606 18.5029 16.824V16.249C18.503 16.1506 18.4838 16.0531 18.4462 15.9621C18.4086 15.8711 18.3534 15.7884 18.2839 15.7188C18.2143 15.6491 18.1317 15.5938 18.0408 15.5561C17.9498 15.5184 17.8524 15.499 17.7539 15.499V15.5ZM11.9999 2.00403C13.326 2.00403 14.5978 2.53081 15.5354 3.46849C16.4731 4.40618 16.9999 5.67795 16.9999 7.00403C16.9999 8.33011 16.4731 9.60188 15.5354 10.5396C14.5978 11.4772 13.326 12.004 11.9999 12.004C10.6738 12.004 9.40205 11.4772 8.46437 10.5396C7.52669 9.60188 6.99991 8.33011 6.99991 7.00403C6.99991 5.67795 7.52669 4.40618 8.46437 3.46849C9.40205 2.53081 10.6738 2.00403 11.9999 2.00403ZM11.9999 3.50403C11.5403 3.50403 11.0852 3.59456 10.6605 3.77045C10.2359 3.94634 9.85004 4.20415 9.52503 4.52915C9.20003 4.85416 8.94222 5.24 8.76633 5.66464C8.59044 6.08928 8.49991 6.5444 8.49991 7.00403C8.49991 7.46365 8.59044 7.91878 8.76633 8.34342C8.94222 8.76806 9.20003 9.1539 9.52503 9.4789C9.85004 9.80391 10.2359 10.0617 10.6605 10.2376C11.0852 10.4135 11.5403 10.504 11.9999 10.504C12.9282 10.504 13.8184 10.1353 14.4748 9.4789C15.1312 8.82253 15.4999 7.93229 15.4999 7.00403C15.4999 6.07577 15.1312 5.18553 14.4748 4.52915C13.8184 3.87278 12.9282 3.50403 11.9999 3.50403Z" fill="white" style="fill:white;fill-opacity:1;"/>
</svg>
