<svg width="239" height="16" viewBox="0 0 239 16" fill="none" xmlns="http://www.w3.org/2000/svg">
<path d="M3 6.18182C3 5.56061 3.15152 4.99432 3.45455 4.48295C3.75758 3.97159 4.16477 3.56439 4.67614 3.26136C5.1875 2.95833 5.75379 2.80682 6.375 2.80682C6.91288 2.80682 7.40909 2.92235 7.86364 3.15341C8.32197 3.38447 8.70076 3.70076 9 4.10227C9.29924 4.5 9.48485 4.95076 9.55682 5.45455H8.18182C8.10606 5.06439 7.89583 4.74621 7.55114 4.5C7.20644 4.25 6.81439 4.125 6.375 4.125C5.99621 4.125 5.65152 4.2178 5.34091 4.40341C5.0303 4.58902 4.7822 4.83712 4.59659 5.14773C4.41098 5.45833 4.31818 5.80303 4.31818 6.18182C4.31818 6.56061 4.41098 6.9053 4.59659 7.21591C4.7822 7.52652 5.0303 7.77462 5.34091 7.96023C5.65152 8.14583 5.99621 8.23864 6.375 8.23864C6.81439 8.23864 7.18561 8.11553 7.48864 7.86932C7.79545 7.61932 7.98864 7.29924 8.06818 6.90909H9.44318C9.37121 7.41288 9.19508 7.86553 8.91477 8.26705C8.63447 8.66477 8.27462 8.97917 7.83523 9.21023C7.39962 9.44129 6.91288 9.55682 6.375 9.55682C5.75379 9.55682 5.1875 9.4053 4.67614 9.10227C4.16477 8.79924 3.75758 8.39205 3.45455 7.88068C3.15152 7.36932 3 6.80303 3 6.18182ZM6.31818 12.1818C5.49242 12.1818 4.71591 12.0265 3.98864 11.7159C3.26515 11.4053 2.62689 10.9754 2.07386 10.4261C1.52462 9.87311 1.0928 9.23485 0.778409 8.51136C0.467803 7.78788 0.314394 7.01136 0.318182 6.18182C0.32197 5.35227 0.479167 4.57576 0.789773 3.85227C1.10417 3.12879 1.53598 2.49242 2.08523 1.94318C2.63447 1.39015 3.27083 0.958333 3.99432 0.647727C4.7178 0.337121 5.49242 0.181818 6.31818 0.181818C7.14773 0.181818 7.92424 0.337121 8.64773 0.647727C9.375 0.958333 10.0114 1.39015 10.5568 1.94318C11.1061 2.49242 11.536 3.12879 11.8466 3.85227C12.1572 4.57576 12.3144 5.35227 12.3182 6.18182C12.322 7.01136 12.1686 7.78788 11.858 8.51136C11.5473 9.23485 11.1174 9.87311 10.5682 10.4261C10.0189 10.9754 9.38068 11.4053 8.65341 11.7159C7.92614 12.0265 7.14773 12.1818 6.31818 12.1818ZM6.31818 10.8636C6.96591 10.8636 7.57386 10.7424 8.14205 10.5C8.71023 10.2576 9.20833 9.92235 9.63636 9.49432C10.0644 9.06629 10.3996 8.57008 10.642 8.00568C10.8845 7.4375 11.0038 6.83144 11 6.1875C10.9962 5.53977 10.8731 4.93182 10.6307 4.36364C10.3883 3.79545 10.053 3.29735 9.625 2.86932C9.19697 2.44129 8.70076 2.10606 8.13636 1.86364C7.57197 1.62121 6.96591 1.5 6.31818 1.5C5.67424 1.5 5.07008 1.62121 4.50568 1.86364C3.94129 2.10606 3.44508 2.44318 3.01705 2.875C2.58902 3.30303 2.25189 3.80114 2.00568 4.36932C1.76326 4.93371 1.64015 5.53977 1.63636 6.1875C1.63258 6.82765 1.75189 7.43182 1.99432 8C2.23674 8.56439 2.57197 9.06061 3 9.48864C3.43182 9.91667 3.92992 10.2538 4.49432 10.5C5.0625 10.7424 5.67045 10.8636 6.31818 10.8636ZM19.3452 12V10.9773L23.1861 6.77273C23.6368 6.2803 24.008 5.85227 24.2997 5.48864C24.5914 5.12121 24.8073 4.77652 24.9474 4.45455C25.0914 4.12879 25.1634 3.78788 25.1634 3.43182C25.1634 3.02273 25.0649 2.66856 24.8679 2.36932C24.6747 2.07008 24.4096 1.83901 24.0724 1.67614C23.7353 1.51326 23.3565 1.43182 22.9361 1.43182C22.4891 1.43182 22.099 1.52462 21.7656 1.71023C21.4361 1.89205 21.1804 2.14773 20.9986 2.47727C20.8205 2.80682 20.7315 3.19318 20.7315 3.63636H19.3906C19.3906 2.95455 19.5478 2.35606 19.8622 1.84091C20.1766 1.32576 20.6046 0.924242 21.1463 0.636363C21.6918 0.348484 22.3035 0.204545 22.9815 0.204545C23.6634 0.204545 24.2675 0.348484 24.794 0.636363C25.3205 0.924242 25.7334 1.3125 26.0327 1.80114C26.3319 2.28977 26.4815 2.83333 26.4815 3.43182C26.4815 3.85985 26.4039 4.27841 26.2486 4.6875C26.0971 5.0928 25.8319 5.54545 25.4531 6.04545C25.0781 6.54167 24.5573 7.14773 23.8906 7.86364L21.277 10.6591V10.75H26.6861V12H19.3452ZM32.8281 12.1591C31.9721 12.1591 31.2429 11.9261 30.6406 11.4602C30.0384 10.9905 29.5781 10.3106 29.2599 9.42045C28.9418 8.52652 28.7827 7.44697 28.7827 6.18182C28.7827 4.92424 28.9418 3.85038 29.2599 2.96023C29.5819 2.06629 30.044 1.38447 30.6463 0.914772C31.2524 0.441287 31.9796 0.204545 32.8281 0.204545C33.6766 0.204545 34.402 0.441287 35.0043 0.914772C35.6103 1.38447 36.0724 2.06629 36.3906 2.96023C36.7126 3.85038 36.8736 4.92424 36.8736 6.18182C36.8736 7.44697 36.7145 8.52652 36.3963 9.42045C36.0781 10.3106 35.6179 10.9905 35.0156 11.4602C34.4134 11.9261 33.6842 12.1591 32.8281 12.1591ZM32.8281 10.9091C33.6766 10.9091 34.3357 10.5 34.8054 9.68182C35.2751 8.86364 35.5099 7.69697 35.5099 6.18182C35.5099 5.17424 35.402 4.31629 35.1861 3.60795C34.974 2.89962 34.6671 2.35985 34.2656 1.98864C33.8679 1.61742 33.3887 1.43182 32.8281 1.43182C31.9872 1.43182 31.33 1.84659 30.8565 2.67614C30.383 3.50189 30.1463 4.67045 30.1463 6.18182C30.1463 7.18939 30.2524 8.04545 30.4645 8.75C30.6766 9.45455 30.9815 9.99053 31.3793 10.358C31.7808 10.7254 32.2637 10.9091 32.8281 10.9091ZM39.0327 12V10.9773L42.8736 6.77273C43.3243 6.2803 43.6955 5.85227 43.9872 5.48864C44.2789 5.12121 44.4948 4.77652 44.6349 4.45455C44.7789 4.12879 44.8509 3.78788 44.8509 3.43182C44.8509 3.02273 44.7524 2.66856 44.5554 2.36932C44.3622 2.07008 44.0971 1.83901 43.7599 1.67614C43.4228 1.51326 43.044 1.43182 42.6236 1.43182C42.1766 1.43182 41.7865 1.52462 41.4531 1.71023C41.1236 1.89205 40.8679 2.14773 40.6861 2.47727C40.508 2.80682 40.419 3.19318 40.419 3.63636H39.0781C39.0781 2.95455 39.2353 2.35606 39.5497 1.84091C39.8641 1.32576 40.2921 0.924242 40.8338 0.636363C41.3793 0.348484 41.991 0.204545 42.669 0.204545C43.3509 0.204545 43.955 0.348484 44.4815 0.636363C45.008 0.924242 45.4209 1.3125 45.7202 1.80114C46.0194 2.28977 46.169 2.83333 46.169 3.43182C46.169 3.85985 46.0914 4.27841 45.9361 4.6875C45.7846 5.0928 45.5194 5.54545 45.1406 6.04545C44.7656 6.54167 44.2448 7.14773 43.5781 7.86364L40.9645 10.6591V10.75H46.3736V12H39.0327ZM48.1974 9.61364V8.45455L53.3111 0.363636H54.152V2.15909H53.5838L49.7202 8.27273V8.36364H56.6065V9.61364H48.1974ZM53.6747 12V9.26136V8.72159V0.363636H55.0156V12H53.6747ZM112.777 12H111.3L115.572 0.363636H117.027L121.3 12H119.822L116.345 2.20455H116.254L112.777 12ZM113.322 7.45455H119.277V8.70455H113.322V7.45455ZM124.271 0.363636V12H122.93V0.363636H124.271ZM128.068 0.363636V12H126.727V0.363636H128.068ZM135.024 12V3.27273H136.32V4.59091H136.411C136.57 4.15909 136.857 3.80871 137.274 3.53977C137.691 3.27083 138.161 3.13636 138.683 3.13636C138.782 3.13636 138.905 3.13826 139.053 3.14205C139.2 3.14583 139.312 3.15152 139.388 3.15909V4.52273C139.342 4.51136 139.238 4.49432 139.075 4.47159C138.916 4.44508 138.748 4.43182 138.57 4.43182C138.145 4.43182 137.767 4.52083 137.433 4.69886C137.104 4.87311 136.842 5.11553 136.649 5.42614C136.46 5.73295 136.365 6.08333 136.365 6.47727V12H135.024ZM140.977 12V3.27273H142.318V12H140.977ZM141.659 1.81818C141.398 1.81818 141.172 1.72917 140.983 1.55114C140.797 1.37311 140.705 1.15909 140.705 0.909091C140.705 0.659091 140.797 0.445076 140.983 0.267045C141.172 0.089015 141.398 0 141.659 0C141.92 0 142.144 0.089015 142.33 0.267045C142.519 0.445076 142.614 0.659091 142.614 0.909091C142.614 1.15909 142.519 1.37311 142.33 1.55114C142.144 1.72917 141.92 1.81818 141.659 1.81818ZM148.297 15.4545C147.649 15.4545 147.092 15.3712 146.626 15.2045C146.161 15.0417 145.772 14.8258 145.462 14.5568C145.155 14.2917 144.911 14.0076 144.729 13.7045L145.797 12.9545C145.918 13.1136 146.071 13.2955 146.257 13.5C146.443 13.7083 146.696 13.8883 147.018 14.0398C147.344 14.1951 147.77 14.2727 148.297 14.2727C149.001 14.2727 149.583 14.1023 150.041 13.7614C150.5 13.4205 150.729 12.8864 150.729 12.1591V10.3864H150.615C150.517 10.5455 150.376 10.7424 150.195 10.9773C150.017 11.2083 149.759 11.4148 149.422 11.5966C149.089 11.7746 148.638 11.8636 148.07 11.8636C147.365 11.8636 146.732 11.697 146.172 11.3636C145.615 11.0303 145.174 10.5455 144.848 9.90909C144.526 9.27273 144.365 8.5 144.365 7.59091C144.365 6.69697 144.522 5.91856 144.837 5.25568C145.151 4.58901 145.589 4.07386 146.149 3.71023C146.71 3.3428 147.357 3.15909 148.092 3.15909C148.661 3.15909 149.111 3.25379 149.445 3.44318C149.782 3.62879 150.039 3.84091 150.217 4.07955C150.399 4.31439 150.539 4.50758 150.638 4.65909H150.774V3.27273H152.07V12.25C152.07 13 151.899 13.6098 151.558 14.0795C151.221 14.553 150.767 14.8996 150.195 15.1193C149.626 15.3428 148.994 15.4545 148.297 15.4545ZM148.251 10.6591C148.789 10.6591 149.244 10.536 149.615 10.2898C149.986 10.0436 150.268 9.68939 150.462 9.22727C150.655 8.76515 150.751 8.21212 150.751 7.56818C150.751 6.93939 150.657 6.38447 150.467 5.90341C150.278 5.42235 149.998 5.04545 149.626 4.77273C149.255 4.5 148.797 4.36364 148.251 4.36364C147.683 4.36364 147.21 4.50758 146.831 4.79545C146.456 5.08333 146.174 5.4697 145.984 5.95455C145.799 6.43939 145.706 6.97727 145.706 7.56818C145.706 8.17424 145.801 8.71023 145.99 9.17614C146.183 9.63826 146.467 10.0019 146.842 10.267C147.221 10.5284 147.691 10.6591 148.251 10.6591ZM155.865 6.75V12H154.524V0.363636H155.865V4.63636H155.979C156.183 4.18561 156.49 3.82765 156.899 3.5625C157.312 3.29356 157.861 3.15909 158.547 3.15909C159.142 3.15909 159.662 3.27841 160.109 3.51705C160.556 3.75189 160.903 4.11364 161.149 4.60227C161.399 5.08712 161.524 5.70455 161.524 6.45455V12H160.183V6.54545C160.183 5.85227 160.003 5.31629 159.643 4.9375C159.287 4.55492 158.793 4.36364 158.161 4.36364C157.721 4.36364 157.327 4.45644 156.979 4.64205C156.634 4.82765 156.361 5.09848 156.161 5.45455C155.964 5.81061 155.865 6.24242 155.865 6.75ZM167.773 3.27273V4.40909H163.25V3.27273H167.773ZM164.568 1.18182H165.909V9.5C165.909 9.87879 165.964 10.1629 166.074 10.3523C166.188 10.5379 166.331 10.6629 166.506 10.7273C166.684 10.7879 166.871 10.8182 167.068 10.8182C167.216 10.8182 167.337 10.8106 167.432 10.7955C167.527 10.7765 167.602 10.7614 167.659 10.75L167.932 11.9545C167.841 11.9886 167.714 12.0227 167.551 12.0568C167.388 12.0947 167.182 12.1136 166.932 12.1136C166.553 12.1136 166.182 12.0322 165.818 11.8693C165.458 11.7064 165.159 11.4583 164.92 11.125C164.686 10.7917 164.568 10.3712 164.568 9.86364V1.18182ZM174.29 12V3.27273H175.585V4.59091H175.676C175.835 4.15909 176.123 3.80871 176.54 3.53977C176.956 3.27083 177.426 3.13636 177.949 3.13636C178.047 3.13636 178.17 3.13826 178.318 3.14205C178.466 3.14583 178.578 3.15152 178.653 3.15909V4.52273C178.608 4.51136 178.504 4.49432 178.341 4.47159C178.182 4.44508 178.013 4.43182 177.835 4.43182C177.411 4.43182 177.032 4.52083 176.699 4.69886C176.369 4.87311 176.108 5.11553 175.915 5.42614C175.725 5.73295 175.631 6.08333 175.631 6.47727V12H174.29ZM183.636 12.1818C182.795 12.1818 182.07 11.9962 181.46 11.625C180.854 11.25 180.386 10.7273 180.057 10.0568C179.731 9.38258 179.568 8.59848 179.568 7.70455C179.568 6.81061 179.731 6.02273 180.057 5.34091C180.386 4.6553 180.845 4.12121 181.432 3.73864C182.023 3.35227 182.712 3.15909 183.5 3.15909C183.955 3.15909 184.403 3.23485 184.847 3.38636C185.29 3.53788 185.693 3.78409 186.057 4.125C186.42 4.46212 186.71 4.90909 186.926 5.46591C187.142 6.02273 187.25 6.70833 187.25 7.52273V8.09091H180.523V6.93182H185.886C185.886 6.43939 185.788 6 185.591 5.61364C185.398 5.22727 185.121 4.92235 184.761 4.69886C184.405 4.47538 183.985 4.36364 183.5 4.36364C182.966 4.36364 182.504 4.49621 182.114 4.76136C181.727 5.02273 181.43 5.36364 181.222 5.78409C181.013 6.20455 180.909 6.6553 180.909 7.13636V7.90909C180.909 8.56818 181.023 9.12689 181.25 9.58523C181.481 10.0398 181.801 10.3864 182.21 10.625C182.619 10.8598 183.095 10.9773 183.636 10.9773C183.989 10.9773 184.307 10.928 184.591 10.8295C184.879 10.7273 185.127 10.5758 185.335 10.375C185.544 10.1705 185.705 9.91667 185.818 9.61364L187.114 9.97727C186.977 10.4167 186.748 10.803 186.426 11.1364C186.104 11.4659 185.706 11.7235 185.233 11.9091C184.759 12.0909 184.227 12.1818 183.636 12.1818ZM195.472 5.22727L194.267 5.56818C194.191 5.36742 194.08 5.17235 193.932 4.98295C193.788 4.78977 193.591 4.63068 193.341 4.50568C193.091 4.38068 192.771 4.31818 192.381 4.31818C191.847 4.31818 191.402 4.44129 191.045 4.6875C190.693 4.92992 190.517 5.23864 190.517 5.61364C190.517 5.94697 190.638 6.21023 190.881 6.40341C191.123 6.59659 191.502 6.75758 192.017 6.88636L193.312 7.20455C194.093 7.39394 194.674 7.68371 195.057 8.07386C195.439 8.46023 195.631 8.95833 195.631 9.56818C195.631 10.0682 195.487 10.5152 195.199 10.9091C194.915 11.303 194.517 11.6136 194.006 11.8409C193.494 12.0682 192.9 12.1818 192.222 12.1818C191.331 12.1818 190.595 11.9886 190.011 11.6023C189.428 11.2159 189.059 10.6515 188.903 9.90909L190.176 9.59091C190.297 10.0606 190.527 10.4129 190.864 10.6477C191.205 10.8826 191.65 11 192.199 11C192.824 11 193.32 10.8674 193.688 10.6023C194.059 10.3333 194.244 10.0114 194.244 9.63636C194.244 9.33333 194.138 9.07955 193.926 8.875C193.714 8.66667 193.388 8.51136 192.949 8.40909L191.494 8.06818C190.695 7.87879 190.108 7.58523 189.733 7.1875C189.362 6.78598 189.176 6.28409 189.176 5.68182C189.176 5.18939 189.314 4.75379 189.591 4.375C189.871 3.99621 190.252 3.69886 190.733 3.48295C191.218 3.26705 191.767 3.15909 192.381 3.15909C193.244 3.15909 193.922 3.34848 194.415 3.72727C194.911 4.10606 195.263 4.60606 195.472 5.22727ZM201.308 12.1818C200.467 12.1818 199.742 11.9962 199.132 11.625C198.526 11.25 198.058 10.7273 197.729 10.0568C197.403 9.38258 197.24 8.59848 197.24 7.70455C197.24 6.81061 197.403 6.02273 197.729 5.34091C198.058 4.6553 198.517 4.12121 199.104 3.73864C199.695 3.35227 200.384 3.15909 201.172 3.15909C201.626 3.15909 202.075 3.23485 202.518 3.38636C202.962 3.53788 203.365 3.78409 203.729 4.125C204.092 4.46212 204.382 4.90909 204.598 5.46591C204.814 6.02273 204.922 6.70833 204.922 7.52273V8.09091H198.195V6.93182H203.558C203.558 6.43939 203.46 6 203.263 5.61364C203.07 5.22727 202.793 4.92235 202.433 4.69886C202.077 4.47538 201.657 4.36364 201.172 4.36364C200.638 4.36364 200.176 4.49621 199.786 4.76136C199.399 5.02273 199.102 5.36364 198.893 5.78409C198.685 6.20455 198.581 6.6553 198.581 7.13636V7.90909C198.581 8.56818 198.695 9.12689 198.922 9.58523C199.153 10.0398 199.473 10.3864 199.882 10.625C200.291 10.8598 200.767 10.9773 201.308 10.9773C201.661 10.9773 201.979 10.928 202.263 10.8295C202.551 10.7273 202.799 10.5758 203.007 10.375C203.215 10.1705 203.376 9.91667 203.49 9.61364L204.786 9.97727C204.649 10.4167 204.42 10.803 204.098 11.1364C203.776 11.4659 203.378 11.7235 202.905 11.9091C202.431 12.0909 201.899 12.1818 201.308 12.1818ZM206.962 12V3.27273H208.257V4.59091H208.348C208.507 4.15909 208.795 3.80871 209.212 3.53977C209.628 3.27083 210.098 3.13636 210.621 3.13636C210.719 3.13636 210.842 3.13826 210.99 3.14205C211.138 3.14583 211.25 3.15152 211.325 3.15909V4.52273C211.28 4.51136 211.176 4.49432 211.013 4.47159C210.854 4.44508 210.685 4.43182 210.507 4.43182C210.083 4.43182 209.704 4.52083 209.371 4.69886C209.041 4.87311 208.78 5.11553 208.587 5.42614C208.397 5.73295 208.303 6.08333 208.303 6.47727V12H206.962ZM220.317 3.27273L217.089 12H215.726L212.499 3.27273H213.953L216.362 10.2273H216.453L218.862 3.27273H220.317ZM225.433 12.1818C224.592 12.1818 223.867 11.9962 223.257 11.625C222.651 11.25 222.183 10.7273 221.854 10.0568C221.528 9.38258 221.365 8.59848 221.365 7.70455C221.365 6.81061 221.528 6.02273 221.854 5.34091C222.183 4.6553 222.642 4.12121 223.229 3.73864C223.82 3.35227 224.509 3.15909 225.297 3.15909C225.751 3.15909 226.2 3.23485 226.643 3.38636C227.087 3.53788 227.49 3.78409 227.854 4.125C228.217 4.46212 228.507 4.90909 228.723 5.46591C228.939 6.02273 229.047 6.70833 229.047 7.52273V8.09091H222.32V6.93182H227.683C227.683 6.43939 227.585 6 227.388 5.61364C227.195 5.22727 226.918 4.92235 226.558 4.69886C226.202 4.47538 225.782 4.36364 225.297 4.36364C224.763 4.36364 224.301 4.49621 223.911 4.76136C223.524 5.02273 223.227 5.36364 223.018 5.78409C222.81 6.20455 222.706 6.6553 222.706 7.13636V7.90909C222.706 8.56818 222.82 9.12689 223.047 9.58523C223.278 10.0398 223.598 10.3864 224.007 10.625C224.416 10.8598 224.892 10.9773 225.433 10.9773C225.786 10.9773 226.104 10.928 226.388 10.8295C226.676 10.7273 226.924 10.5758 227.132 10.375C227.34 10.1705 227.501 9.91667 227.615 9.61364L228.911 9.97727C228.774 10.4167 228.545 10.803 228.223 11.1364C227.901 11.4659 227.503 11.7235 227.03 11.9091C226.556 12.0909 226.024 12.1818 225.433 12.1818ZM234.382 12.1818C233.655 12.1818 233.013 11.9981 232.456 11.6307C231.899 11.2595 231.464 10.7367 231.149 10.0625C230.835 9.38447 230.678 8.58333 230.678 7.65909C230.678 6.74242 230.835 5.94697 231.149 5.27273C231.464 4.59848 231.901 4.07765 232.462 3.71023C233.022 3.3428 233.67 3.15909 234.405 3.15909C234.973 3.15909 235.422 3.25379 235.751 3.44318C236.085 3.62879 236.339 3.84091 236.513 4.07955C236.691 4.31439 236.829 4.50758 236.928 4.65909H237.041V0.363636H238.382V12H237.087V10.6591H236.928C236.829 10.8182 236.689 11.0189 236.507 11.2614C236.325 11.5 236.066 11.714 235.729 11.9034C235.392 12.089 234.943 12.1818 234.382 12.1818ZM234.564 10.9773C235.102 10.9773 235.556 10.8371 235.928 10.5568C236.299 10.2727 236.581 9.88068 236.774 9.38068C236.967 8.87689 237.064 8.29545 237.064 7.63636C237.064 6.98485 236.969 6.41477 236.78 5.92614C236.59 5.43371 236.31 5.05114 235.939 4.77841C235.568 4.50189 235.109 4.36364 234.564 4.36364C233.996 4.36364 233.522 4.50947 233.143 4.80114C232.768 5.08902 232.486 5.48106 232.297 5.97727C232.111 6.4697 232.018 7.02273 232.018 7.63636C232.018 8.25758 232.113 8.82197 232.303 9.32955C232.496 9.83333 232.78 10.2348 233.155 10.5341C233.534 10.8295 234.003 10.9773 234.564 10.9773Z" fill="#B4B4BB" style="fill:#B4B4BB;fill:color(display-p3 0.7059 0.7059 0.7333);fill-opacity:1;"/>
<path d="M63.9176 12H62.4403L66.7131 0.363636H68.1676L72.4403 12H70.9631L67.4858 2.20455H67.3949L63.9176 12ZM64.4631 7.45455H70.4176V8.70455H64.4631V7.45455ZM80.2528 5.22727L79.0483 5.56818C78.9725 5.36742 78.8608 5.17235 78.7131 4.98295C78.5691 4.78977 78.3722 4.63068 78.1222 4.50568C77.8722 4.38068 77.5521 4.31818 77.1619 4.31818C76.6278 4.31818 76.1828 4.44129 75.8267 4.6875C75.4744 4.92992 75.2983 5.23864 75.2983 5.61364C75.2983 5.94697 75.4195 6.21023 75.6619 6.40341C75.9044 6.59659 76.2831 6.75758 76.7983 6.88636L78.0938 7.20455C78.8741 7.39394 79.4555 7.68371 79.8381 8.07386C80.2206 8.46023 80.4119 8.95833 80.4119 9.56818C80.4119 10.0682 80.268 10.5152 79.9801 10.9091C79.696 11.303 79.2983 11.6136 78.7869 11.8409C78.2756 12.0682 77.6809 12.1818 77.0028 12.1818C76.1127 12.1818 75.3759 11.9886 74.7926 11.6023C74.2093 11.2159 73.84 10.6515 73.6847 9.90909L74.9574 9.59091C75.0786 10.0606 75.3078 10.4129 75.6449 10.6477C75.9858 10.8826 76.4309 11 76.9801 11C77.6051 11 78.1013 10.8674 78.4688 10.6023C78.84 10.3333 79.0256 10.0114 79.0256 9.63636C79.0256 9.33333 78.9195 9.07955 78.7074 8.875C78.4953 8.66667 78.1695 8.51136 77.7301 8.40909L76.2756 8.06818C75.4763 7.87879 74.8892 7.58523 74.5142 7.1875C74.143 6.78598 73.9574 6.28409 73.9574 5.68182C73.9574 5.18939 74.0956 4.75379 74.3722 4.375C74.6525 3.99621 75.0331 3.69886 75.5142 3.48295C75.9991 3.26705 76.5483 3.15909 77.1619 3.15909C78.0256 3.15909 78.7036 3.34848 79.196 3.72727C79.6922 4.10606 80.0445 4.60606 80.2528 5.22727ZM86.2259 3.27273V4.40909H81.7031V3.27273H86.2259ZM83.0213 1.18182H84.3622V9.5C84.3622 9.87879 84.4171 10.1629 84.527 10.3523C84.6406 10.5379 84.7846 10.6629 84.9588 10.7273C85.1368 10.7879 85.3243 10.8182 85.5213 10.8182C85.669 10.8182 85.7902 10.8106 85.8849 10.7955C85.9796 10.7765 86.0554 10.7614 86.1122 10.75L86.3849 11.9545C86.294 11.9886 86.1671 12.0227 86.0043 12.0568C85.8414 12.0947 85.6349 12.1136 85.3849 12.1136C85.0062 12.1136 84.6349 12.0322 84.2713 11.8693C83.9115 11.7064 83.6122 11.4583 83.3736 11.125C83.1387 10.7917 83.0213 10.3712 83.0213 9.86364V1.18182ZM88.2429 12V3.27273H89.5384V4.59091H89.6293C89.7884 4.15909 90.0762 3.80871 90.4929 3.53977C90.9096 3.27083 91.3793 3.13636 91.902 3.13636C92.0005 3.13636 92.1236 3.13826 92.2713 3.14205C92.419 3.14583 92.5308 3.15152 92.6065 3.15909V4.52273C92.5611 4.51136 92.4569 4.49432 92.294 4.47159C92.1349 4.44508 91.9664 4.43182 91.7884 4.43182C91.3641 4.43182 90.9853 4.52083 90.652 4.69886C90.3224 4.87311 90.0611 5.11553 89.8679 5.42614C89.6785 5.73295 89.5838 6.08333 89.5838 6.47727V12H88.2429ZM96.7642 12.2045C96.2112 12.2045 95.7093 12.1004 95.2585 11.892C94.8078 11.6799 94.4498 11.375 94.1847 10.9773C93.9195 10.5758 93.7869 10.0909 93.7869 9.52273C93.7869 9.02273 93.8854 8.61742 94.0824 8.30682C94.2794 7.99242 94.5426 7.74621 94.8722 7.56818C95.2017 7.39015 95.5653 7.25758 95.9631 7.17045C96.3646 7.07955 96.768 7.00758 97.1733 6.95455C97.7036 6.88636 98.1335 6.83523 98.4631 6.80114C98.7964 6.76326 99.0388 6.70076 99.1903 6.61364C99.3456 6.52652 99.4233 6.375 99.4233 6.15909V6.11364C99.4233 5.55303 99.2699 5.11742 98.9631 4.80682C98.66 4.49621 98.1998 4.34091 97.5824 4.34091C96.9422 4.34091 96.4403 4.48106 96.0767 4.76136C95.7131 5.04167 95.4574 5.34091 95.3097 5.65909L94.0369 5.20455C94.2642 4.67424 94.5672 4.26136 94.946 3.96591C95.3286 3.66667 95.7453 3.45833 96.196 3.34091C96.6506 3.2197 97.0975 3.15909 97.5369 3.15909C97.8172 3.15909 98.1392 3.19318 98.5028 3.26136C98.8703 3.32576 99.2244 3.46023 99.5653 3.66477C99.91 3.86932 100.196 4.17803 100.423 4.59091C100.651 5.00379 100.764 5.55682 100.764 6.25V12H99.4233V10.8182H99.3551C99.2642 11.0076 99.1127 11.2102 98.9006 11.4261C98.6884 11.642 98.4063 11.8258 98.054 11.9773C97.7017 12.1288 97.2718 12.2045 96.7642 12.2045ZM96.9688 11C97.4991 11 97.946 10.8958 98.3097 10.6875C98.6771 10.4792 98.9536 10.2102 99.1392 9.88068C99.3286 9.55114 99.4233 9.20455 99.4233 8.84091V7.61364C99.3665 7.68182 99.2415 7.74432 99.0483 7.80114C98.8589 7.85417 98.6392 7.90151 98.3892 7.94318C98.143 7.98106 97.9025 8.01515 97.6676 8.04545C97.4366 8.07197 97.2491 8.0947 97.1051 8.11364C96.7566 8.15909 96.4309 8.23295 96.1278 8.33523C95.8286 8.43371 95.5862 8.58333 95.4006 8.78409C95.2188 8.98106 95.1278 9.25 95.1278 9.59091C95.1278 10.0568 95.3002 10.4091 95.6449 10.6477C95.9934 10.8826 96.4347 11 96.9688 11Z" fill="white" style="fill:white;fill-opacity:1;"/>
<path d="M104.189 12.0909C103.909 12.0909 103.668 11.9905 103.467 11.7898C103.267 11.589 103.166 11.3485 103.166 11.0682C103.166 10.7879 103.267 10.5473 103.467 10.3466C103.668 10.1458 103.909 10.0455 104.189 10.0455C104.469 10.0455 104.71 10.1458 104.911 10.3466C105.111 10.5473 105.212 10.7879 105.212 11.0682C105.212 11.2538 105.164 11.4242 105.07 11.5795C104.979 11.7348 104.856 11.8598 104.7 11.9545C104.549 12.0455 104.378 12.0909 104.189 12.0909Z" fill="white" style="fill:white;fill-opacity:1;"/>
</svg>
